<svg width="124" height="35" viewBox="0 0 124 35" fill="none" xmlns="http://www.w3.org/2000/svg">
<path d="M0.0236806 0.497294H8.95129C10.751 0.497294 12.4639 1.04984 14.09 2.15494C14.4373 2.37596 14.8714 2.74695 15.3924 3.26793C15.8818 3.77312 16.2134 4.16779 16.387 4.45196C16.7501 5.00451 17.0501 5.56495 17.2869 6.13329C17.7447 7.26997 17.9736 8.38294 17.9736 9.47226V9.75643C17.9736 11.3825 17.5 12.977 16.5528 14.5399C16.316 14.9188 15.9844 15.3451 15.5582 15.8187C14.9898 16.387 14.6031 16.7422 14.3978 16.8843C14.1295 17.0895 13.7979 17.3184 13.4032 17.571C17.8868 22.102 20.2627 24.5095 20.5311 24.7936C20.7679 25.0304 22.9465 27.2406 27.067 31.4242L30.2402 34.6685H26.6644C21.5494 29.4903 18.613 26.5144 17.8552 25.7409C13.419 21.2415 11.1378 18.9287 11.0115 18.8024H2.58119V34.6448C2.58119 34.6606 2.5733 34.6685 2.55751 34.6685H0.0236806C0.00789331 34.6685 0 34.6606 0 34.6448V0.520974C0 0.505187 0.00789331 0.497294 0.0236806 0.497294ZM2.58119 3.07848V16.2212H8.71448C10.53 16.2212 12.1008 15.5898 13.4269 14.3268C13.8848 13.8374 14.2005 13.4427 14.3742 13.1428C15.0688 12.0534 15.4161 10.8773 15.4161 9.61434C15.4161 8.08299 14.903 6.68584 13.8769 5.42287C13.419 4.91768 13.0875 4.59405 12.8823 4.45196C11.6667 3.53631 10.3169 3.07848 8.83288 3.07848H2.58119ZM45.5558 0.473613C45.5558 0.4894 44.2849 3.05478 41.7432 8.16982C41.6169 8.43821 40.1408 11.4298 37.3149 17.1448C34.3943 23.0492 32.784 26.2934 32.4841 26.8775C32.1367 27.6353 31.8368 28.2352 31.5842 28.6773C30.637 27.2091 30.0292 26.2382 29.7608 25.7645C28.3873 23.1912 27.7006 20.5154 27.7006 17.7368V17.571C27.7006 14.461 28.5373 11.5167 30.2107 8.73816C30.6054 8.0751 31.1501 7.33311 31.8447 6.51218C32.3657 5.89648 32.9893 5.27289 33.7155 4.64141C35.5152 3.15741 37.4491 2.0839 39.5172 1.42084C40.1171 1.21561 40.9065 1.02616 41.8853 0.852503C42.3747 0.741993 43.5982 0.615698 45.5558 0.473613ZM49.0842 1.11299C50.7261 1.61818 52.0285 2.15494 52.9915 2.72327C53.5756 3.02323 54.215 3.43369 54.9096 3.95467C55.3833 4.27041 55.9516 4.75191 56.6147 5.39919C57.4514 6.23591 57.996 6.83581 58.2486 7.19892C58.8959 8.06721 59.3695 8.78552 59.6695 9.35386C60.0799 10.0643 60.4667 10.9247 60.8298 11.935C61.4929 13.7979 61.8244 15.6608 61.8244 17.5237V17.7368C61.8244 20.6101 61.0824 23.3728 59.5984 26.025C59.2037 26.7355 58.667 27.5169 57.9881 28.3694C57.183 29.3482 56.3384 30.1928 55.4543 30.9032C54.7912 31.4242 54.2071 31.8347 53.7019 32.1346C50.8918 33.8239 47.9475 34.6685 44.869 34.6685H44.6322C41.759 34.6685 38.9884 33.9344 36.3203 32.4662C35.8467 32.182 35.1679 31.74 34.2838 31.1401V31.1164C34.789 30.0902 36.5492 26.5145 39.5646 20.389C43.0693 13.3006 44.8296 9.73275 44.8454 9.68539C45.0822 9.22756 46.4556 6.44116 48.9658 1.32612C49.0289 1.18403 49.0684 1.11299 49.0842 1.11299ZM30.2818 17.6184V17.6658C30.2818 19.5602 30.6528 21.4231 31.3948 23.2544C31.4895 23.0965 33.1313 19.7971 36.3203 13.3559C39.1936 7.53042 40.7881 4.30199 41.1038 3.6705V3.64682C40.5513 3.7889 40.0066 3.96256 39.4699 4.16779C36.2019 5.5097 33.7076 7.73566 31.9868 10.8457C30.8501 13.0086 30.2818 15.2661 30.2818 17.6184ZM50.3866 4.30988C47.7344 9.67752 45.6032 13.9952 43.9929 17.2632C40.346 24.6674 38.3963 28.622 38.1437 29.1272L37.5991 30.2165C37.9622 30.4217 38.4516 30.6664 39.0673 30.9506C40.9302 31.7084 42.7694 32.0873 44.5849 32.0873H44.9638C47.0003 32.0873 49.0526 31.5979 51.1207 30.6191C51.8627 30.256 52.66 29.7666 53.5125 29.1509C53.9387 28.8193 54.3887 28.4247 54.8623 27.9668C55.478 27.3511 55.9121 26.8775 56.1647 26.546C56.7646 25.7409 57.1988 25.0778 57.4672 24.5568C58.6512 22.394 59.2432 20.097 59.2432 17.6658V17.5947C59.2432 14.5794 58.3355 11.7772 56.5199 9.18809C56.2042 8.73026 55.7385 8.17772 55.1228 7.53045C54.4439 6.8516 53.8914 6.3701 53.4651 6.08593C52.6758 5.5018 51.9259 5.03609 51.2155 4.68877C50.8208 4.49932 50.5445 4.37303 50.3866 4.30988ZM82.0419 35C82.0419 34.9842 81.8919 34.6843 81.592 34.1001L80.4553 31.7794C80.3132 31.4795 78.6161 28.0142 75.364 21.3836C75.4745 21.1784 75.5376 21.06 75.5534 21.0284C75.8376 20.4443 77.4794 17.0817 80.479 10.9405C83.5733 4.6098 85.1677 1.35769 85.2625 1.18403C85.5309 0.615694 85.6729 0.331529 85.6887 0.331529H98.9972L95.6583 7.15156C92.6903 13.2612 91.159 16.4028 91.0642 16.5765C91.0011 16.7028 89.4145 19.947 86.3044 26.3092C83.4785 32.0715 82.0656 34.9684 82.0656 35H82.0419ZM82.0419 29.3166L84.6468 23.9885C84.8046 23.6728 86.4465 20.3259 89.5723 13.9479C89.7144 13.6479 91.522 9.94591 94.9952 2.84168V2.818H87.2516C87.2359 2.818 87.2201 2.84168 87.2043 2.88904L83.5338 10.3721C83.4706 10.5142 81.6788 14.1847 78.1583 21.3836C80.6526 26.4829 81.9472 29.1272 82.0419 29.3166ZM73.4695 17.4526C73.4537 17.4526 73.4064 17.3658 73.3274 17.1922L69.9174 10.2064C69.8069 10.0011 68.1966 6.70955 65.0866 0.331529H81.8525C79.0266 6.12542 77.5347 9.1802 77.3768 9.49594L73.4695 17.4526ZM73.4695 11.7693C73.4853 11.7377 74.9456 8.75398 77.8504 2.818H69.0886C69.1517 2.94429 69.1912 3.01534 69.207 3.03112L73.4695 11.7693ZM106.759 0H106.782C106.782 0.0315747 108.195 2.92848 111.021 8.6908C114.131 15.053 115.718 18.2972 115.781 18.4235C115.876 18.5972 117.407 21.7388 120.375 27.8484L123.714 34.6685H110.406C110.39 34.6685 110.248 34.3843 109.979 33.816C109.885 33.6423 108.29 30.3902 105.196 24.0595C102.196 17.9183 100.554 14.5557 100.27 13.9716C100.254 13.94 100.191 13.8216 100.081 13.6164C103.333 6.98576 105.03 3.52052 105.172 3.22057L106.309 0.899865C106.609 0.315739 106.759 0.0157873 106.759 0ZM106.759 5.68336C106.664 5.8728 105.369 8.51711 102.875 13.6164C106.396 20.8153 108.187 24.4858 108.251 24.6279L111.921 32.111C111.937 32.1583 111.953 32.182 111.968 32.182H119.712V32.1583C116.239 25.0541 114.431 21.3521 114.289 21.0521C111.163 14.6741 109.521 11.3272 109.364 11.0115L106.759 5.68336ZM98.1863 17.5474L102.094 25.5041C102.251 25.8198 103.743 28.8746 106.569 34.6685H89.8034C92.9134 28.2905 94.5237 24.9989 94.6342 24.7936L98.0442 17.8078C98.1232 17.6342 98.1705 17.5474 98.1863 17.5474ZM98.1863 23.2307L93.9238 31.9689C93.908 31.9847 93.8685 32.0557 93.8054 32.182H102.567C99.6624 26.246 98.2021 23.2623 98.1863 23.2307Z" fill="white"/>
</svg>
